<svg viewBox="0 0 16 26" fill="none" xmlns="http://www.w3.org/2000/svg"><path d="M10.5 12C10.5 13.3812 9.38125 14.5 8 14.5C6.61875 14.5 5.5 13.3812 5.5 12C5.5 10.6188 6.61875 9.5 8 9.5C9.38125 9.5 10.5 10.6188 10.5 12ZM8 13.5C8.82812 13.5 9.5 12.8281 9.5 12C9.5 11.1719 8.82812 10.5 8 10.5C7.17188 10.5 6.5 11.1719 6.5 12C6.5 12.8281 7.17188 13.5 8 13.5ZM14 12C14 14.7312 10.3438 19.5938 8.74062 21.6C8.35625 22.0781 7.64375 22.0781 7.25938 21.6C5.62813 19.5938 2 14.7312 2 12C2 8.68625 4.68625 6 8 6C11.3125 6 14 8.68625 14 12ZM8 7C5.2375 7 3 9.2375 3 12C3 12.4875 3.16969 13.1562 3.5175 13.9812C3.85844 14.7906 4.3375 15.6687 4.87937 16.5469C5.94375 18.275 7.20625 19.9281 8 20.925C8.79375 19.9281 10.0562 18.275 11.1219 16.5469C11.6625 15.6687 12.1406 14.7906 12.4812 13.9812C12.8313 13.1562 13 12.4875 13 12C13 9.2375 10.7625 7 8 7Z" fill="#A6BC20"/></svg>